<?xml version="1.0" standalone="no"?>
<!DOCTYPE svg PUBLIC "-//W3C//DTD SVG 20010904//EN"
 "http://www.w3.org/TR/2001/REC-SVG-20010904/DTD/svg10.dtd">
<svg version="1.0" xmlns="http://www.w3.org/2000/svg"
 width="500.000000pt" height="500.000000pt" viewBox="0 0 500.000000 500.000000"
 preserveAspectRatio="xMidYMid meet">

<g transform="translate(0.000000,500.000000) scale(0.100000,-0.100000)"
fill="#000000" stroke="none">
<path d="M1472 3493 c-13 -3 -43 -24 -68 -47 l-44 -43 0 -201 c0 -111 4 -202
9 -202 5 0 24 20 42 45 19 24 36 45 39 45 3 0 17 -20 32 -45 15 -25 32 -45 37
-45 5 0 21 21 36 46 l28 47 33 -39 33 -39 1 -157 c0 -153 1 -158 21 -158 20 0
20 2 17 338 -3 355 -4 357 -51 410 l-20 22 529 0 c583 0 571 1 618 -63 20 -27
21 -43 24 -368 2 -289 5 -339 17 -339 13 0 15 47 15 333 0 325 -1 334 -22 377
-17 33 -35 51 -68 68 l-44 22 -596 -1 c-327 -1 -605 -4 -618 -6z m104 -39 c64
-31 74 -61 74 -235 l-1 -154 -28 33 c-15 17 -33 32 -39 32 -6 0 -22 -18 -34
-40 -13 -22 -26 -40 -30 -40 -4 0 -17 18 -29 40 -13 22 -28 40 -35 40 -7 0
-26 -17 -43 -37 l-31 -38 2 162 c3 181 10 200 79 235 42 22 71 23 115 2z"/>
<path d="M2040 3355 c0 -13 28 -15 195 -15 167 0 195 2 195 15 0 13 -28 15
-195 15 -167 0 -195 -2 -195 -15z"/>
<path d="M1760 3185 c0 -13 26 -15 208 -13 129 2 207 7 207 13 0 6 -78 11
-207 13 -182 2 -208 0 -208 -13z"/>
<path d="M2407 3194 c-18 -19 18 -24 154 -24 126 0 149 2 149 15 0 13 -23 15
-148 15 -82 0 -152 -3 -155 -6z"/>
<path d="M1760 3035 c0 -13 26 -15 208 -13 129 2 207 7 207 13 0 6 -78 11
-207 13 -182 2 -208 0 -208 -13z"/>
<path d="M2407 3044 c-18 -19 18 -24 154 -24 126 0 149 2 149 15 0 13 -23 15
-148 15 -82 0 -152 -3 -155 -6z"/>
<path d="M1760 2885 c0 -13 26 -15 208 -13 129 2 207 7 207 13 0 6 -78 11
-207 13 -182 2 -208 0 -208 -13z"/>
<path d="M2407 2894 c-18 -19 18 -24 154 -24 126 0 149 2 149 15 0 13 -23 15
-148 15 -82 0 -152 -3 -155 -6z"/>
<path d="M1760 2735 c0 -13 26 -15 208 -13 129 2 207 7 207 13 0 6 -78 11
-207 13 -182 2 -208 0 -208 -13z"/>
<path d="M2407 2744 c-18 -19 18 -24 154 -24 126 0 149 2 149 15 0 13 -23 15
-148 15 -82 0 -152 -3 -155 -6z"/>
<path d="M1660 2645 c-10 -12 -10 -18 0 -30 7 -8 18 -15 25 -15 7 0 18 7 25
15 10 12 10 18 0 30 -7 8 -18 15 -25 15 -7 0 -18 -7 -25 -15z"/>
<path d="M1780 2505 l0 -155 30 0 30 0 0 155 0 155 -30 0 -30 0 0 -155z"/>
<path d="M1900 2505 l0 -155 30 0 30 0 0 155 0 155 -30 0 -30 0 0 -155z"/>
<path d="M2510 2505 l0 -155 30 0 30 0 0 155 0 155 -30 0 -30 0 0 -155z"/>
<path d="M2642 2651 c-23 -14 -10 -46 18 -46 20 0 25 5 25 25 0 26 -20 36 -43
21z"/>
<path d="M1390 2495 l0 -147 79 3 c67 4 83 8 105 28 35 32 35 82 2 108 -23 19
-23 20 -5 31 27 17 25 73 -2 98 -16 14 -40 20 -100 23 l-79 3 0 -147z m139 71
c4 -23 -24 -46 -56 -46 -20 0 -23 5 -23 36 0 35 1 35 37 32 28 -2 39 -8 42
-22z m-8 -96 c41 -23 16 -70 -38 -70 -32 0 -33 1 -33 40 0 36 2 40 26 40 14 0
34 -5 45 -10z"/>
<path d="M2048 2620 c-20 -15 -28 -31 -28 -51 0 -46 16 -67 71 -95 40 -20 50
-29 47 -47 -3 -20 -8 -22 -65 -20 -56 1 -63 -1 -63 -17 0 -27 30 -40 90 -40
41 0 56 5 75 25 48 47 30 100 -45 141 -39 21 -50 33 -48 48 3 18 10 21 51 21
36 0 51 5 59 18 14 26 6 30 -60 35 -47 3 -62 0 -84 -18z"/>
<path d="M2774 2595 c-3 -14 -15 -30 -25 -36 -23 -12 -25 -29 -4 -29 12 0 15
-14 15 -68 0 -89 15 -112 76 -112 41 0 44 2 44 26 0 19 -4 25 -15 20 -34 -13
-45 4 -45 70 l0 64 30 0 c23 0 30 4 30 20 0 16 -7 20 -30 20 -25 0 -30 4 -30
25 0 35 -37 35 -46 0z"/>
<path d="M2987 2569 c-44 -7 -49 -11 -41 -32 5 -13 15 -15 49 -10 36 5 45 2
54 -15 10 -18 7 -20 -37 -27 -67 -9 -92 -28 -92 -69 0 -19 8 -40 18 -49 24
-22 80 -22 104 -1 16 16 18 16 24 0 3 -9 15 -16 25 -16 17 0 19 8 19 93 0 77
-3 97 -17 109 -23 20 -58 25 -106 17z m67 -141 c-8 -28 -23 -39 -49 -36 -23 3
-33 37 -13 49 7 5 26 9 41 9 25 0 27 -3 21 -22z"/>
<path d="M1660 2460 l0 -110 25 0 25 0 0 110 0 110 -25 0 -25 0 0 -110z"/>
<path d="M2250 2410 l0 -160 30 0 30 0 0 60 c0 58 1 60 20 50 34 -18 81 -8
103 21 27 37 27 121 0 158 -23 30 -84 41 -110 19 -13 -10 -17 -10 -20 0 -3 6
-16 12 -29 12 l-24 0 0 -160z m131 104 c20 -24 16 -95 -7 -111 -23 -17 -29
-16 -48 3 -19 18 -22 94 -4 112 17 17 43 15 59 -4z"/>
<path d="M2630 2460 l0 -110 30 0 30 0 0 110 0 110 -30 0 -30 0 0 -110z"/>
<path d="M1650 2031 c0 -125 4 -251 10 -279 20 -105 85 -199 169 -242 56 -28
68 -26 75 15 4 19 11 35 16 35 5 0 43 -16 86 -35 42 -19 83 -35 90 -35 8 0 17
14 21 30 3 17 9 33 14 36 5 3 45 -11 90 -31 45 -20 88 -34 94 -31 7 2 15 18
18 35 4 17 11 31 16 31 6 0 44 -16 87 -35 42 -19 82 -35 90 -35 7 0 16 16 20
35 3 19 10 35 15 35 4 0 45 -16 89 -36 45 -19 87 -33 95 -31 7 3 15 21 19 40
l7 35 94 -25 c53 -14 98 -23 102 -19 4 4 -14 26 -40 49 -27 26 -58 68 -74 103
l-28 59 -3 263 c-3 220 -6 262 -18 262 -12 0 -14 -39 -14 -248 0 -274 5 -309
60 -396 20 -30 26 -46 16 -43 -39 15 -99 28 -111 24 -7 -3 -15 -19 -18 -36 -4
-17 -11 -31 -16 -31 -4 0 -43 16 -85 35 -43 19 -83 35 -91 35 -8 0 -17 -15
-21 -35 -3 -19 -9 -35 -13 -35 -4 0 -44 16 -88 35 -45 19 -86 35 -92 35 -6 0
-14 -14 -18 -30 -3 -17 -9 -33 -14 -36 -5 -3 -45 11 -89 31 -45 19 -87 35 -94
35 -8 0 -17 -16 -20 -35 -4 -19 -11 -35 -16 -35 -5 0 -43 16 -86 35 -42 19
-83 35 -90 35 -8 0 -17 -14 -21 -30 -8 -41 -18 -45 -56 -21 -50 31 -83 71
-112 134 l-27 57 1 260 c1 255 1 260 -19 260 -19 0 -20 -6 -20 -229z"/>
<path d="M2160 2145 c-11 -13 -8 -15 21 -15 19 0 41 -5 49 -10 11 -7 6 -10
-21 -10 -20 0 -42 -7 -49 -15 -11 -13 -6 -15 40 -15 43 0 51 -3 46 -16 -3 -9
-6 -17 -6 -20 0 -2 -18 -7 -40 -10 -22 -4 -40 -12 -40 -19 0 -7 21 -40 48 -73
33 -43 54 -61 70 -62 27 0 25 5 -31 73 -22 26 -38 49 -36 50 2 1 18 9 34 17
17 9 34 25 40 37 5 12 18 23 29 25 30 5 32 28 2 28 -13 0 -28 5 -31 10 -3 6 5
10 18 10 14 0 27 7 31 15 4 13 -8 15 -78 15 -62 0 -87 -4 -96 -15z"/>
</g>
</svg>
